<svg width="56" height="56" viewBox="0 0 56 56" fill="none" xmlns="http://www.w3.org/2000/svg">
<path d="M24.5 49C24.5 49 21 49 21 45.5C21 42 24.5 31.5 38.5 31.5C52.5 31.5 56 42 56 45.5C56 49 52.5 49 52.5 49H24.5ZM38.5 28C41.2848 28 43.9555 26.8938 45.9246 24.9246C47.8938 22.9555 49 20.2848 49 17.5C49 14.7152 47.8938 12.0445 45.9246 10.0754C43.9555 8.10625 41.2848 7 38.5 7C35.7152 7 33.0445 8.10625 31.0754 10.0754C29.1062 12.0445 28 14.7152 28 17.5C28 20.2848 29.1062 22.9555 31.0754 24.9246C33.0445 26.8938 35.7152 28 38.5 28ZM18.256 49C17.7371 47.9074 17.4784 46.7094 17.5 45.5C17.5 40.7575 19.88 35.875 24.276 32.48C22.0818 31.8039 19.7958 31.4733 17.5 31.5C3.5 31.5 0 42 0 45.5C0 49 3.5 49 3.5 49H18.256ZM15.75 28C18.0706 28 20.2962 27.0781 21.9372 25.4372C23.5781 23.7962 24.5 21.5706 24.5 19.25C24.5 16.9294 23.5781 14.7038 21.9372 13.0628C20.2962 11.4219 18.0706 10.5 15.75 10.5C13.4294 10.5 11.2038 11.4219 9.56282 13.0628C7.92187 14.7038 7 16.9294 7 19.25C7 21.5706 7.92187 23.7962 9.56282 25.4372C11.2038 27.0781 13.4294 28 15.75 28Z" fill="#F48848"/>
</svg>
