<svg width="20" height="20" viewBox="0 0 20 20" fill="none" xmlns="http://www.w3.org/2000/svg">
<path d="M18.2895 7.6482C18.2371 7.49392 18.1407 7.35836 18.0122 7.25825C17.8836 7.15814 17.7286 7.09787 17.5662 7.08487L12.8153 6.70737L10.7595 2.15654C10.694 2.00996 10.5875 1.88547 10.4529 1.79808C10.3182 1.7107 10.1611 1.66415 10.0006 1.66406C9.84009 1.66397 9.68296 1.71035 9.5482 1.79759C9.41344 1.88483 9.30681 2.0092 9.24118 2.1557L7.18535 6.70737L2.43451 7.08487C2.27489 7.09751 2.1223 7.15588 1.99498 7.25298C1.86766 7.35008 1.77101 7.4818 1.71659 7.63239C1.66218 7.78298 1.6523 7.94606 1.68813 8.10212C1.72397 8.25818 1.80401 8.40061 1.91868 8.51237L5.42951 11.9349L4.18785 17.3115C4.15015 17.4743 4.16223 17.6446 4.22253 17.8004C4.28283 17.9562 4.38857 18.0903 4.52602 18.1852C4.66346 18.2802 4.82628 18.3316 4.99333 18.3329C5.16039 18.3342 5.32397 18.2852 5.46285 18.1924L10.0003 15.1674L14.5378 18.1924C14.6798 18.2866 14.8472 18.3351 15.0175 18.3314C15.1879 18.3277 15.353 18.2719 15.4907 18.1715C15.6284 18.0711 15.732 17.931 15.7877 17.7699C15.8433 17.6089 15.8483 17.4347 15.802 17.2707L14.2778 11.9374L18.0578 8.5357C18.3053 8.31237 18.3962 7.96404 18.2895 7.6482V7.6482Z" fill="#FFB800"/>
</svg>
