<svg width="20" height="20" viewBox="0 0 20 20" fill="none" xmlns="http://www.w3.org/2000/svg">
<path d="M4.18785 17.3115C4.1593 17.4338 4.15878 17.5609 4.18635 17.6833C4.21391 17.8058 4.26883 17.9204 4.347 18.0186C4.42516 18.1168 4.52455 18.1961 4.6377 18.2504C4.75085 18.3047 4.87483 18.3328 5.00035 18.3324C5.16496 18.3324 5.32589 18.2837 5.46285 18.1924L10.0003 15.1674L14.5378 18.1924C14.6798 18.2866 14.8472 18.3351 15.0175 18.3314C15.1879 18.3277 15.353 18.2719 15.4907 18.1715C15.6284 18.0711 15.732 17.931 15.7877 17.7699C15.8433 17.6089 15.8483 17.4347 15.802 17.2707L14.2778 11.9374L18.0578 8.5357C18.1789 8.42669 18.2654 8.28459 18.3065 8.12696C18.3477 7.96934 18.3417 7.8031 18.2894 7.64882C18.2371 7.49454 18.1407 7.35897 18.0122 7.25889C17.8836 7.15881 17.7286 7.09859 17.5662 7.0857L12.8153 6.70737L10.7595 2.15654C10.694 2.00996 10.5875 1.88547 10.4529 1.79808C10.3182 1.7107 10.1611 1.66415 10.0006 1.66406C9.84009 1.66397 9.68296 1.71035 9.5482 1.79759C9.41344 1.88483 9.30681 2.0092 9.24118 2.1557L7.18535 6.70737L2.43451 7.08487C2.27489 7.09751 2.1223 7.15588 1.99498 7.25298C1.86766 7.35008 1.77101 7.4818 1.71659 7.63239C1.66218 7.78298 1.6523 7.94606 1.68813 8.10212C1.72397 8.25818 1.80401 8.40061 1.91868 8.51237L5.43035 11.9349L4.18785 17.3115ZM10.0003 4.5232L11.702 8.2907L12.192 8.32987H12.1928L15.5028 8.59237L12.777 11.0457L12.7762 11.0474L12.3903 11.394L12.5328 11.8915V11.894L13.577 15.5482L10.0003 13.164V4.5232Z" fill="#FFB800"/>
</svg>
