<svg width="20" height="20" viewBox="0 0 20 20" fill="none" xmlns="http://www.w3.org/2000/svg">
<path d="M5.41634 1.66602C4.86381 1.66602 4.3339 1.88551 3.9432 2.27621C3.5525 2.66691 3.33301 3.19681 3.33301 3.74935V16.2493C3.33301 16.8019 3.5525 17.3318 3.9432 17.7225C4.3339 18.1132 4.86381 18.3327 5.41634 18.3327H16.458C16.6238 18.3327 16.7827 18.2668 16.9 18.1496C17.0172 18.0324 17.083 17.8734 17.083 17.7077C17.083 17.5419 17.0172 17.383 16.9 17.2657C16.7827 17.1485 16.6238 17.0827 16.458 17.0827H5.41634C5.19533 17.0827 4.98337 16.9949 4.82709 16.8386C4.67081 16.6823 4.58301 16.4704 4.58301 16.2493H16.458C16.6238 16.2493 16.7827 16.1835 16.9 16.0663C17.0172 15.9491 17.083 15.7901 17.083 15.6243V3.74935C17.083 3.47576 17.0291 3.20485 16.9244 2.95209C16.8197 2.69933 16.6663 2.46967 16.4728 2.27621C16.2794 2.08275 16.0497 1.9293 15.7969 1.8246C15.5442 1.7199 15.2733 1.66602 14.9997 1.66602H5.41634ZM6.66634 4.16602H13.333C13.554 4.16602 13.766 4.25381 13.9223 4.41009C14.0785 4.56637 14.1663 4.77834 14.1663 4.99935V5.83268C14.1663 6.0537 14.0785 6.26566 13.9223 6.42194C13.766 6.57822 13.554 6.66602 13.333 6.66602H6.66634C6.44533 6.66602 6.23337 6.57822 6.07709 6.42194C5.92081 6.26566 5.83301 6.0537 5.83301 5.83268V4.99935C5.83301 4.77834 5.92081 4.56637 6.07709 4.41009C6.23337 4.25381 6.44533 4.16602 6.66634 4.16602Z" fill="#071E3D"/>
</svg>
