<svg width="30" height="30" viewBox="0 0 30 30" fill="none" xmlns="http://www.w3.org/2000/svg">
<rect width="30" height="30" rx="6" fill="#071E3D"/>
<path d="M5.99999 11C5.99999 11.55 6.44999 12 6.99999 12H11C11.55 12 12 11.55 12 11V6.99999C12 6.44999 11.55 5.99999 11 5.99999C10.45 5.99999 9.99999 6.44999 9.99999 6.99999V8.58999L7.61999 6.20999C7.52741 6.11741 7.4175 6.04397 7.29653 5.99386C7.17557 5.94376 7.04592 5.91797 6.91499 5.91797C6.78406 5.91797 6.65441 5.94376 6.53345 5.99386C6.41248 6.04397 6.30257 6.11741 6.20999 6.20999C6.11741 6.30257 6.04397 6.41248 5.99386 6.53345C5.94376 6.65441 5.91797 6.78406 5.91797 6.91499C5.91797 7.04592 5.94376 7.17557 5.99386 7.29653C6.04397 7.4175 6.11741 7.52741 6.20999 7.61999L8.58999 9.99999H6.99999C6.44999 9.99999 5.99999 10.45 5.99999 11ZM23 9.99999H21.41L23.79 7.61999C23.977 7.43301 24.082 7.17942 24.082 6.91499C24.082 6.65056 23.977 6.39697 23.79 6.20999C23.603 6.02301 23.3494 5.91797 23.085 5.91797C22.8206 5.91797 22.567 6.02301 22.38 6.20999L20 8.58999V6.99999C20 6.44999 19.55 5.99999 19 5.99999C18.45 5.99999 18 6.44999 18 6.99999V11C18 11.55 18.45 12 19 12H23C23.55 12 24 11.55 24 11C24 10.45 23.55 9.99999 23 9.99999ZM6.99999 20H8.58999L6.20999 22.38C6.02301 22.567 5.91797 22.8206 5.91797 23.085C5.91797 23.3494 6.02301 23.603 6.20999 23.79C6.39697 23.977 6.65056 24.082 6.91499 24.082C7.17942 24.082 7.43301 23.977 7.61999 23.79L9.99999 21.41V23C9.99999 23.55 10.45 24 11 24C11.55 24 12 23.55 12 23V19C12 18.45 11.55 18 11 18H6.99999C6.44999 18 5.99999 18.45 5.99999 19C5.99999 19.55 6.44999 20 6.99999 20ZM24 19C24 18.45 23.55 18 23 18H19C18.45 18 18 18.45 18 19V23C18 23.55 18.45 24 19 24C19.55 24 20 23.55 20 23V21.41L22.38 23.79C22.567 23.977 22.8206 24.082 23.085 24.082C23.3494 24.082 23.603 23.977 23.79 23.79C23.977 23.603 24.082 23.3494 24.082 23.085C24.082 22.8206 23.977 22.567 23.79 22.38L21.41 20H23C23.55 20 24 19.55 24 19Z" fill="#F6F6F6"/>
</svg>
