<svg width="37" height="20" viewBox="0 0 37 20" fill="none" xmlns="http://www.w3.org/2000/svg">
<g clip-path="url(#clip0_251_73)">
<path d="M27.4659 7.16873C28.1453 5.95539 29.3799 4.65073 31.4799 3.40739C32.0666 3.07406 32.4373 2.46739 32.4373 1.83006C32.4373 0.525393 31.0786 -0.384607 29.8439 0.161393C26.2919 1.70806 20.3333 5.56139 20.3333 13.5387C20.3333 17.1181 23.2666 20.0001 26.8793 20.0001C30.4919 20.0001 33.4559 17.1181 33.4559 13.5387C33.4559 10.2021 30.8313 7.47206 27.4659 7.16873Z" fill="#38B6EC"/>
</g>
<g clip-path="url(#clip1_251_73)">
<path d="M10.4659 7.16873C11.1453 5.95539 12.3799 4.65073 14.4799 3.40739C15.0666 3.07406 15.4373 2.46739 15.4373 1.83006C15.4373 0.525393 14.0786 -0.384607 12.8439 0.161393C9.29192 1.70806 3.33325 5.56139 3.33325 13.5387C3.33325 17.1181 6.26659 20.0001 9.87925 20.0001C13.4919 20.0001 16.4559 17.1181 16.4559 13.5387C16.4559 10.2021 13.8313 7.47206 10.4659 7.16873Z" fill="#38B6EC"/>
</g>
<defs>
<clipPath id="clip0_251_73">
<rect width="20" height="20" fill="white" transform="translate(17)"/>
</clipPath>
<clipPath id="clip1_251_73">
<rect width="20" height="20" fill="white"/>
</clipPath>
</defs>
</svg>
