<svg width="20" height="20" viewBox="0 0 20 20" fill="none" xmlns="http://www.w3.org/2000/svg">
<path d="M9.99199 1.66602C5.39199 1.66602 1.66699 5.39935 1.66699 9.99935C1.66699 14.5993 5.39199 18.3327 9.99199 18.3327C14.6003 18.3327 18.3337 14.5993 18.3337 9.99935C18.3337 5.39935 14.6003 1.66602 9.99199 1.66602ZM15.767 6.66602H13.3087C13.0478 5.6339 12.6616 4.6376 12.1587 3.69935C13.6788 4.22268 14.9596 5.27579 15.767 6.66602ZM10.0003 3.36602C10.692 4.36602 11.2337 5.47435 11.592 6.66602H8.40866C8.76699 5.47435 9.30866 4.36602 10.0003 3.36602ZM3.55033 11.666C3.41699 11.1327 3.33366 10.5743 3.33366 9.99935C3.33366 9.42435 3.41699 8.86602 3.55033 8.33268H6.36699C6.30033 8.88268 6.25033 9.43268 6.25033 9.99935C6.25033 10.566 6.30033 11.116 6.36699 11.666H3.55033ZM4.23366 13.3327H6.69199C6.95866 14.3743 7.34199 15.3743 7.84199 16.2993C6.3203 15.7789 5.03852 14.725 4.23366 13.3327ZM6.69199 6.66602H4.23366C5.03852 5.27366 6.3203 4.21982 7.84199 3.69935C7.33901 4.6376 6.95281 5.6339 6.69199 6.66602ZM10.0003 16.6327C9.30866 15.6327 8.76699 14.5243 8.40866 13.3327H11.592C11.2337 14.5243 10.692 15.6327 10.0003 16.6327ZM11.9503 11.666H8.05033C7.97533 11.116 7.91699 10.566 7.91699 9.99935C7.91699 9.43268 7.97533 8.87435 8.05033 8.33268H11.9503C12.0253 8.87435 12.0837 9.43268 12.0837 9.99935C12.0837 10.566 12.0253 11.116 11.9503 11.666ZM12.1587 16.2993C12.6587 15.3743 13.042 14.3743 13.3087 13.3327H15.767C14.9596 14.7229 13.6788 15.776 12.1587 16.2993ZM13.6337 11.666C13.7003 11.116 13.7503 10.566 13.7503 9.99935C13.7503 9.43268 13.7003 8.88268 13.6337 8.33268H16.4503C16.5837 8.86602 16.667 9.42435 16.667 9.99935C16.667 10.5743 16.5837 11.1327 16.4503 11.666H13.6337Z" fill="#071E3D"/>
</svg>
