<svg width="56" height="56" viewBox="0 0 56 56" fill="none" xmlns="http://www.w3.org/2000/svg">
<path d="M16.3333 9.33341V25.6667L22.1667 22.1667L28 25.6667V9.33341H16.3333ZM42 53.6667C38.7722 53.6667 36.0205 52.5289 33.7447 50.2531C31.4689 47.9773 30.3318 45.2263 30.3333 42.0001C30.3333 38.7723 31.4712 36.0213 33.747 33.7471C36.0228 31.4729 38.7738 30.335 42 30.3334C45.2278 30.3334 47.9796 31.4713 50.2553 33.7471C52.5311 36.0229 53.6682 38.7739 53.6667 42.0001C53.6667 45.2279 52.5288 47.9796 50.253 50.2554C47.9772 52.5312 45.2262 53.6683 42 53.6667ZM39.0833 47.8334L48.4167 42.0001L39.0833 36.1667V47.8334ZM25.6667 41.9837C25.6667 43.6669 25.9296 45.2963 26.4553 46.8721C26.9811 48.4479 27.6905 49.935 28.5833 51.3334H11.6667C10.3833 51.3334 9.28434 50.8769 8.36967 49.9637C7.455 49.0506 6.99845 47.9516 7 46.6667V9.33341C7 8.05008 7.45734 6.95186 8.372 6.03875C9.28667 5.12564 10.3849 4.6683 11.6667 4.66675H39.6667C40.95 4.66675 42.049 5.12408 42.9637 6.03875C43.8783 6.95341 44.3349 8.05164 44.3333 9.33341V25.7834C43.9413 25.7445 43.5501 25.7157 43.1597 25.6971C42.7692 25.6784 42.378 25.6683 41.986 25.6667C37.4453 25.6667 33.5907 27.2519 30.422 30.4221C27.2518 33.5907 25.6667 37.4446 25.6667 41.9837Z" fill="#F48848"/>
</svg>
