<svg width="26" height="26" viewBox="0 0 26 26" fill="none" xmlns="http://www.w3.org/2000/svg">
<path d="M14.0834 22.75L16.2501 21.6667L18.4167 22.75V15.1667H14.0834M18.4167 9.75V7.58333L16.2501 8.66667L14.0834 7.58333V9.75L11.9167 10.8333L14.0834 11.9167V14.0833L16.2501 13L18.4167 14.0833V11.9167L20.5834 10.8333M21.6667 3.25H4.33341C3.75878 3.25 3.20768 3.47827 2.80135 3.8846C2.39502 4.29093 2.16675 4.84203 2.16675 5.41667V16.25C2.16675 16.8246 2.39502 17.3757 2.80135 17.7821C3.20768 18.1884 3.75878 18.4167 4.33341 18.4167H11.9167V16.25H4.33341V5.41667H21.6667V16.25H20.5834V18.4167H21.6667C22.2414 18.4167 22.7925 18.1884 23.1988 17.7821C23.6051 17.3757 23.8334 16.8246 23.8334 16.25V5.41667C23.8334 4.84203 23.6051 4.29093 23.1988 3.8846C22.7925 3.47827 22.2414 3.25 21.6667 3.25ZM11.9167 8.66667H5.41675V6.5H11.9167M9.75008 11.9167H5.41675V9.75H9.75008M11.9167 15.1667H5.41675V13H11.9167V15.1667Z" fill="#F16F21"/>
</svg>
